<svg xmlns="http://www.w3.org/2000/svg" width="27" height="26" viewBox="0 0 27 26">
    <path fill="#F5A623" fill-rule="nonzero" d="M14.804.816l3.045 6.213c.212.433.621.732 1.095.801l6.81.997c1.192.174 1.668 1.65.805 2.497l-4.927 4.836a1.47 1.47 0 0 0-.418 1.296l1.163 6.829c.204 1.196-1.043 2.108-2.11 1.544l-6.09-3.224a1.447 1.447 0 0 0-1.354 0l-6.09 3.224c-1.067.564-2.314-.348-2.11-1.544l1.163-6.83a1.47 1.47 0 0 0-.418-1.295L.441 11.324C-.422 10.476.054 9 1.247 8.827l6.81-.997c.473-.069.882-.368 1.094-.8L12.196.815c.533-1.088 2.074-1.088 2.608 0z"/>
</svg>
